<svg version="1.1" id="Layer_1" xmlns="http://www.w3.org/2000/svg" xmlns:xlink="http://www.w3.org/1999/xlink" x="0px" y="0px"
        viewBox="0 0 839.7 538.6" style="enable-background:new 0 0 839.7 538.6;" xml:space="preserve">
        
        <clipPath  id="cp" clipPathUnits="objectBoundingBox" transform="scale(0.0011909, 0.00185667)">
          <path class="st0" d="M0,63.8c0,0,0,474.8,0,474.8c65.1,0,130.1,0,195.2,0c114.4,0,228.9,0,343.3,0c26.2,0,52.4,0,78.6,0
	c29.4,0,56.7,4.2,81-15.8c62.9-51.8,107.5-124.4,128.2-203c19.2-72.7,24-165-21.2-229.5c-10.8-15.5-24.8-28.9-42-37
	c-56.5-26.8-106.8,27.1-159.8,38.4c-65.7,14-134.3-11.2-192.9-39.1c-64.9-31-129.3-52.9-202.3-51.6C132.8,2.2,65.3,27.9,0,63.8z"
          />
        </clipPath>
				
      </svg>