<?xml version="1.0" encoding="utf-8"?>
<!-- Generator: Adobe Illustrator 21.0.0, SVG Export Plug-In . SVG Version: 6.00 Build 0)  -->
<svg version="1.1" id="Layer_1" xmlns="http://www.w3.org/2000/svg" xmlns:xlink="http://www.w3.org/1999/xlink" x="0px" y="0px"
	 viewBox="0 0 1121.7 602.7" style="enable-background:new 0 0 1121.7 602.7;" xml:space="preserve">
<style type="text/css">
	.st0{fill:url(#SVGID_1_);}
	.st1{opacity:0.4;fill:none;stroke:#FFFFFF;stroke-width:4.6435;stroke-miterlimit:10;}
	.st2{opacity:0.4;fill:none;stroke:#FFFFFF;stroke-width:4.8355;stroke-miterlimit:10;}
	.st3{opacity:0.4;fill:none;stroke:#FFFFFF;stroke-width:3.314;stroke-miterlimit:10;}
	.st4{opacity:0.2;fill:none;stroke:#FFFFFF;stroke-width:3.259;stroke-miterlimit:10;}
	.st5{opacity:0.4;fill:none;stroke:#FFFFFF;stroke-width:3.457;stroke-miterlimit:10;}
	.st6{opacity:0.2;fill:#FFFFFF;stroke:#FFFFFF;stroke-width:3.999;stroke-miterlimit:10;}
	.st7{opacity:0.2;fill:#FFFFFF;stroke:#FFFFFF;stroke-width:2.93;stroke-miterlimit:10;}
	.st8{opacity:0.2;fill:#FFFFFF;stroke:#FFFFFF;stroke-width:2.3425;stroke-miterlimit:10;}
	.st9{opacity:0.2;fill:none;stroke:#FFFFFF;stroke-width:4.685;stroke-miterlimit:10;}
	.st10{opacity:0.4;fill:none;stroke:#FFFFFF;stroke-width:4.685;stroke-miterlimit:10;}
</style>
<linearGradient id="SVGID_1_" gradientUnits="userSpaceOnUse" x1="489.3943" y1="93.412" x2="691.7612" y2="681.1281" gradientTransform="matrix(1 0 0 -1 0 601.72)">
	<stop  offset="8.538059e-02" style="stop-color:#00D55B"/>
	<stop  offset="0.981" style="stop-color:#00D55B"/>
</linearGradient>
<path class="st0" d="M0.4-1c0,0-22.3,200.4,254.5,201.6s437.5,55.1,437.5,55.1s242.6,65.7,429.2,346V-1H0.4z"/>
<rect x="638.9" y="110.6" transform="matrix(0.866 -0.5 0.5 0.866 25.7098 342.2738)" class="st1" width="25.2" height="25.2"/>
<rect x="824.3" y="188.8" transform="matrix(0.9281 0.3723 -0.3723 0.9281 135.367 -297.2416)" class="st2" width="26.2" height="26.2"/>
<rect x="57.7" y="51.3" transform="matrix(0.7071 0.7071 -0.7071 0.7071 62.1672 -29.4915)" class="st3" width="18" height="18"/>
<rect x="1055.4" y="417.7" transform="matrix(0.9281 0.3723 -0.3723 0.9281 235.2796 -365.5186)" class="st4" width="17.7" height="17.7"/>
<rect x="356.1" y="27.8" transform="matrix(0.9195 -0.393 0.393 0.9195 14.7906 146.648)" class="st5" width="18.8" height="18.8"/>
<circle class="st6" cx="912.4" cy="126.5" r="7.4"/>
<circle class="st7" cx="768.9" cy="83.7" r="5.4"/>
<circle class="st7" cx="1025.2" cy="51.7" r="5.4"/>
<circle class="st7" cx="768.9" cy="228.9" r="5.4"/>
<circle class="st8" cx="490.8" cy="60.3" r="4.3"/>
<circle class="st8" cx="299.4" cy="20.6" r="4.3"/>
<circle class="st8" cx="517.1" cy="184.7" r="4.3"/>
<circle class="st9" cx="866.2" cy="335.9" r="8.7"/>
<circle class="st9" cx="1115.7" cy="179.2" r="8.7"/>
<circle class="st9" cx="200.4" cy="193.3" r="8.7"/>
<circle class="st9" cx="356.8" cy="145.1" r="8.7"/>
<circle class="st10" cx="998.5" cy="275.4" r="8.7"/>
</svg>
